<?xml version="1.0" encoding="UTF-8"?>
<svg width="23px" height="19px" viewBox="0 0 23 19" version="1.1" xmlns="http://www.w3.org/2000/svg" xmlns:xlink="http://www.w3.org/1999/xlink">
    <!-- Generator: Sketch 52.2 (67145) - http://www.bohemiancoding.com/sketch -->
    <title>浏览数</title>
    <desc>Created with Sketch.</desc>
    <g id="Page-1" stroke="none" stroke-width="1" fill="none" fill-rule="evenodd">
        <g id="浏览数" transform="translate(-91.000000, -82.000000)" fill="#262628">
            <path d="M102.45034,101 C96.0990656,101 91,96.632549 91,94.2568318 C91,91.8811146 96.1487254,88 102.5,88 C108.851275,88 114,92.1770768 114,94.2568318 C114,96.3365868 108.801615,101 102.45034,101 Z M102.527344,99.0102539 C107.774049,99.0102539 111.62915,95.8034778 111.62915,94.3636475 C111.62915,92.9238171 107.354248,90.0554199 102.599121,90.0522461 C97.8439941,90.0490723 93.4733887,92.6711907 93.4733887,94.315918 C93.4733887,95.9606453 97.2806386,99.0102539 102.527344,99.0102539 Z M102.5,98 C100.567003,98 99,96.4329966 99,94.5 C99,92.5670034 100.567003,91 102.5,91 C104.432997,91 106,92.5670034 106,94.5 C106,96.4329966 104.432997,98 102.5,98 Z M102.5,96 C103.328427,96 104,95.3284271 104,94.5 C104,93.6715729 103.328427,93 102.5,93 C101.671573,93 101,93.6715729 101,94.5 C101,95.3284271 101.671573,96 102.5,96 Z M102,82 L102,82 C102.552285,82 103,82.4477153 103,83 L103,85 C103,85.5522847 102.552285,86 102,86 L102,86 C101.447715,86 101,85.5522847 101,85 L101,83 C101,82.4477153 101.447715,82 102,82 Z M111.866025,83.5 L111.866025,83.5 C112.344318,83.7761424 112.508193,84.3877328 112.232051,84.8660254 L111.232051,86.5980762 C110.955908,87.0763688 110.344318,87.240244 109.866025,86.9641016 L109.866025,86.9641016 C109.387733,86.6879592 109.223858,86.0763688 109.5,85.5980762 L110.5,83.8660254 C110.776142,83.3877328 111.387733,83.2238576 111.866025,83.5 Z M91.8660254,84.5 L91.8660254,84.5 C92.344318,84.2238576 92.9559084,84.3877328 93.2320508,84.8660254 L94.2320508,86.5980762 C94.5081932,87.0763688 94.344318,87.6879592 93.8660254,87.9641016 L93.8660254,87.9641016 C93.3877328,88.240244 92.7761424,88.0763688 92.5,87.5980762 L91.5,85.8660254 C91.2238576,85.3877328 91.3877328,84.7761424 91.8660254,84.5 Z"></path>
        </g>
    </g>
</svg>