<?xml version="1.0" encoding="UTF-8"?>
<svg width="12px" height="11px" viewBox="0 0 12 11" version="1.1" xmlns="http://www.w3.org/2000/svg" xmlns:xlink="http://www.w3.org/1999/xlink">
    <!-- Generator: Sketch 52.2 (67145) - http://www.bohemiancoding.com/sketch -->
    <title>喜欢数</title>
    <desc>Created with Sketch.</desc>
    <defs>
        <path d="M97.9597164,712.038134 C99.3467554,713.422249 99.3467554,715.667057 97.9597514,717.050317 L93.0003487,722 L92.5289094,721.529555 L88.0403839,717.050492 C86.6532054,715.667057 86.6532054,713.422249 88.0403838,712.037995 C89.4073519,710.674715 91.6098663,710.654351 92.9999928,711.976669 C94.3906946,710.654333 96.5935683,710.674866 97.9597164,712.038134 Z M95.4239903,716.517862 L95.4228863,716.516761 C95.228439,716.322723 94.9135099,716.323056 94.7194725,716.517503 C94.7189828,716.517994 94.7184941,716.518485 94.7180064,716.518978 L93.2470655,718.005407 C93.0534027,718.201109 93.0543951,718.516551 93.2492854,718.71103 L93.2503895,718.712132 C93.4448368,718.906169 93.7597659,718.905837 93.9538033,718.71139 C93.954293,718.710899 93.9547817,718.710407 93.9552694,718.709914 L95.4262103,717.223486 C95.6198731,717.027784 95.6188807,716.712342 95.4239903,716.517862 Z M96.1566162,716.164148 C96.4327586,716.164148 96.6566162,715.940762 96.6566162,715.665202 C96.6566162,715.389641 96.4327586,715.166256 96.1566162,715.166256 C95.8804738,715.166256 95.6566162,715.389641 95.6566162,715.665202 C95.6566162,715.940762 95.8804738,716.164148 96.1566162,716.164148 Z" id="path-1"></path>
    </defs>
    <g id="Page-1" stroke="none" stroke-width="1" fill="none" fill-rule="evenodd">
        <g id="主页icon切图" transform="translate(-87.000000, -711.000000)">
            <mask id="mask-2" fill="white">
                <use xlink:href="#path-1"></use>
            </mask>
            <use id="xihuanshu" fill="#AEAEAE" fill-rule="nonzero" xlink:href="#path-1"></use>
        </g>
    </g>
</svg>
