<?xml version="1.0" encoding="UTF-8"?>
<svg width="20px" height="19px" viewBox="0 0 20 19" version="1.1" xmlns="http://www.w3.org/2000/svg" xmlns:xlink="http://www.w3.org/1999/xlink">
    <!-- Generator: Sketch 52.2 (67145) - http://www.bohemiancoding.com/sketch -->
    <title>喜欢1</title>
    <desc>Created with Sketch.</desc>
    <defs>
        <path d="M157.266194,40.7931407 C159.577926,43.1838845 159.577926,47.0612796 157.266252,49.4505483 L149.000581,58 L148.214849,57.1874123 L140.733973,49.4508491 C138.422009,47.0612796 138.422009,43.1838845 140.733973,40.7929004 C143.012253,38.4381447 146.683111,38.4029704 148.999988,40.6869735 C151.317824,38.4029393 154.98928,38.4384049 157.266194,40.7931407 Z" id="path-1"></path>
    </defs>
    <g id="Page-1" stroke="none" stroke-width="1" fill="none" fill-rule="evenodd">
        <g id="切图2" transform="translate(-139.000000, -39.000000)">
            <mask id="mask-2" fill="white">
                <use xlink:href="#path-1"></use>
            </mask>
            <path stroke="#262628" stroke-width="2" d="M149.000528,56.5613601 L156.547572,48.755208 C158.484194,46.7535791 158.484179,43.4913398 156.547308,41.4882684 C154.660896,39.5373812 151.627828,39.5013957 149.701882,41.399255 L148.999848,42.0910513 L148.297952,41.3991146 C146.372864,39.5013424 143.340341,39.5371887 141.452859,41.4880281 C139.515748,43.4913477 139.515748,46.753587 141.452859,48.7557214 L148.933735,56.4922847 L149.000528,56.5613601 Z"></path>
        </g>
    </g>
</svg>