<?xml version="1.0" encoding="UTF-8"?>
<svg width="12px" height="11px" viewBox="0 0 12 11" version="1.1" xmlns="http://www.w3.org/2000/svg" xmlns:xlink="http://www.w3.org/1999/xlink">
    <!-- Generator: Sketch 52.2 (67145) - http://www.bohemiancoding.com/sketch -->
    <title>评论数</title>
    <desc>Created with Sketch.</desc>
    <defs>
        <path d="M164.928763,721.005041 C165.150381,721.46216 164.828074,722 164.332521,722 L156.330563,722 C154.491169,722 153,720.463433 153,718.567242 L153,714.432758 C153,712.536805 154.490014,711 156.328496,711 L160.337406,711 C162.177821,711 163.665902,712.539124 163.665902,714.444212 L163.665902,718.400203 L164.928763,721.005041 Z M157.04836,715.125296 C156.772218,715.125296 156.54836,715.349153 156.54836,715.625296 L156.54836,716.687944 C156.54836,716.964086 156.772218,717.187944 157.04836,717.187944 C157.324503,717.187944 157.54836,716.964086 157.54836,716.687944 L157.54836,715.625296 C157.54836,715.349153 157.324503,715.125296 157.04836,715.125296 Z M160.022481,715.125296 C159.746339,715.125296 159.522481,715.349153 159.522481,715.625296 L159.522481,716.687944 C159.522481,716.964086 159.746339,717.187944 160.022481,717.187944 C160.298624,717.187944 160.522481,716.964086 160.522481,716.687944 L160.522481,715.625296 C160.522481,715.349153 160.298624,715.125296 160.022481,715.125296 Z" id="path-1"></path>
    </defs>
    <g id="Page-1" stroke="none" stroke-width="1" fill="none" fill-rule="evenodd">
        <g id="主页icon切图" transform="translate(-153.000000, -711.000000)">
            <mask id="mask-2" fill="white">
                <use xlink:href="#path-1"></use>
            </mask>
            <use id="评论数" fill="#AEAEAE" fill-rule="nonzero" xlink:href="#path-1"></use>
        </g>
    </g>
</svg>