<?xml version="1.0" encoding="UTF-8"?>
<svg width="14px" height="11px" viewBox="0 0 14 11" version="1.1" xmlns="http://www.w3.org/2000/svg" xmlns:xlink="http://www.w3.org/1999/xlink">
    <!-- Generator: Sketch 52.2 (67145) - http://www.bohemiancoding.com/sketch -->
    <title>浏览数</title>
    <desc>Created with Sketch.</desc>
    <g id="Page-1" stroke="none" stroke-width="1" fill="none" fill-rule="evenodd">
        <g id="主页icon切图" transform="translate(-31.000000, -710.000000)" fill="#AEAEAE">
            <path d="M37.9697723,721 C34.1037791,721 31,718.248879 31,716.75238 C31,715.255881 34.1340068,712.811111 38,712.811111 C41.8659932,712.811111 45,715.442312 45,716.75238 C45,718.062448 41.8357656,721 37.9697723,721 Z M38,718.934464 C39.1045695,718.934464 40,718.020625 40,716.893347 C40,715.766068 39.1045695,714.852229 38,714.852229 C36.8954305,714.852229 36,715.766068 36,716.893347 C36,718.020625 36.8954305,718.934464 38,718.934464 Z M38,717.913906 C37.4477153,717.913906 37,717.456986 37,716.893347 C37,716.329708 37.4477153,715.872788 38,715.872788 C38.5522847,715.872788 39,716.329708 39,716.893347 C39,717.456986 38.5522847,717.913906 38,717.913906 Z M37.9772518,710 C38.2533942,710 38.4772518,710.223858 38.4772518,710.5 L38.4772518,711.541118 C38.4772518,711.81726 38.2533942,712.041118 37.9772518,712.041118 C37.7011095,712.041118 37.4772518,711.81726 37.4772518,711.541118 L37.4772518,710.5 C37.4772518,710.223858 37.7011095,710 37.9772518,710 Z M32.6234212,711.083213 L32.6309582,711.080261 C32.8852724,710.980632 33.1722002,711.106029 33.2718293,711.360343 C33.2726482,711.362433 33.2734527,711.364529 33.274243,711.36663 L33.6408393,712.34128 C33.7371209,712.597259 33.6098749,712.883098 33.355231,712.982856 L33.3476941,712.985808 C33.0933798,713.085437 32.806452,712.96004 32.7068229,712.705726 C32.706004,712.703636 32.7051995,712.70154 32.7044092,712.699439 L32.3378129,711.724789 C32.2415313,711.46881 32.3687773,711.182972 32.6234212,711.083213 Z M43.4211972,711.121613 C43.6758411,711.221371 43.8030871,711.50721 43.7068056,711.763188 L43.3402093,712.737838 C43.339419,712.73994 43.3386144,712.742035 43.3377956,712.744125 C43.2381665,712.99844 42.9512387,713.123837 42.6969244,713.024208 L42.6893875,713.021255 C42.4347436,712.921497 42.3074976,712.635658 42.4037791,712.379679 L42.7703754,711.405029 C42.7711657,711.402928 42.7719703,711.400832 42.7727891,711.398742 C42.8724182,711.144428 43.159346,711.019031 43.4136603,711.11866 L43.4211972,711.121613 Z" id="浏览数"></path>
        </g>
    </g>
</svg>